<svg xmlns="http://www.w3.org/2000/svg" width="164" height="43.328" viewBox="0 0 164 43.328">
  <g id="Group_19" data-name="Group 19" transform="translate(-74.999 -65.463)">
    <g id="Group_17" data-name="Group 17" transform="translate(129.18 65.463)">
      <g id="Group_14" data-name="Group 14" transform="translate(1.098)">
        <path id="Path_51" data-name="Path 51" d="M252.439,73.384h-7.785v-7.92H240.26V84.858h4.394v-8h7.785v8h4.394V65.464h-4.394Z" transform="translate(-240.26 -65.464)" fill="#fff"/>
      </g>
      <path id="Path_52" data-name="Path 52" d="M384.162,93.024c3.743,0,5.968-1.6,5.968-4.665,0-3.038-1.954-3.933-5.507-4.449-2.062-.3-2.74-.651-2.74-1.546,0-.868.732-1.465,2.008-1.465a1.919,1.919,0,0,1,2.224,1.709h3.608c-.353-3.255-2.712-4.395-5.859-4.395-2.9,0-5.615,1.465-5.615,4.421,0,2.767,1.465,3.852,5.235,4.421,2.035.3,2.875.705,2.875,1.682s-.7,1.546-2.224,1.546c-1.709,0-2.333-.732-2.5-2.007h-3.661c.135,3.065,2.36,4.747,6.184,4.747" transform="translate(-324.147 -73.332)" fill="#fff"/>
      <path id="Path_53" data-name="Path 53" d="M451.023,93.025c4.259,0,7.487-2.848,7.487-7.323v-.217c0-4.421-3.2-7.269-7.459-7.269a7.113,7.113,0,0,0-7.487,7.351v.217c0,4.421,3.227,7.242,7.459,7.242m.028-2.984c-2.225,0-3.473-1.627-3.473-4.34v-.217c0-2.713,1.3-4.286,3.473-4.286,2.2,0,3.471,1.628,3.471,4.34v.19c0,2.686-1.275,4.313-3.471,4.313" transform="translate(-364.62 -73.333)" fill="#fff"/>
      <path id="Path_54" data-name="Path 54" d="M421.017,88.582a7.144,7.144,0,0,0,2.387-.38V85.165a3.661,3.661,0,0,1-1.492.271c-1,0-1.573-.543-1.573-1.682V76.919h2.984V74.125h-2.984V71.06h-3.906v3.065h-2.392v2.794h2.392v7.188c0,2.957,1.6,4.476,4.584,4.476" transform="translate(-346.401 -68.917)" fill="#fff"/>
      <path id="Path_55" data-name="Path 55" d="M489.414,92.727h3.933V84.535a2.81,2.81,0,0,1,2.957-3.12c1.736,0,2.495.922,2.495,2.848v8.463h3.934V83.694c0-3.8-1.98-5.479-4.774-5.479a4.9,4.9,0,0,0-4.611,2.577V78.54h-3.933Z" transform="translate(-392.914 -73.333)" fill="#fff"/>
      <path id="Path_56" data-name="Path 56" d="M341.182,93.55a4.705,4.705,0,0,0,4.5-2.523v2.224h3.906V79.065h-3.906v8.327a2.822,2.822,0,0,1-2.957,3.119c-1.682,0-2.468-.922-2.468-2.848v-8.6h-3.906v9.141c0,3.716,2.062,5.343,4.828,5.343" transform="translate(-298.461 -73.857)" fill="#fff"/>
      <path id="Path_57" data-name="Path 57" d="M298.273,78.215a7.113,7.113,0,0,0-7.487,7.351v.217c0,4.421,3.228,7.242,7.459,7.242,4.259,0,7.487-2.848,7.487-7.324v-.217C305.732,81.063,302.531,78.215,298.273,78.215Zm3.472,7.513c0,2.685-1.275,4.313-3.472,4.313-2.224,0-3.472-1.628-3.472-4.34v-.217c0-2.713,1.3-4.286,3.472-4.286,2.2,0,3.472,1.627,3.472,4.34Z" transform="translate(-270.341 -73.333)" fill="#fff"/>
      <g id="Group_16" data-name="Group 16" transform="translate(0 23.541)">
        <path id="Path_58" data-name="Path 58" d="M238.419,132.463v3.783h9.975l-11,15.1v.543h17.183v-3.783h-10.25L254.9,132.979v-.516Z" transform="translate(-237.392 -132.463)" fill="#fff"/>
        <g id="Group_15" data-name="Group 15" transform="translate(18.702 4.954)">
          <path id="Path_59" data-name="Path 59" d="M297.212,152.925c0,2.69-1.277,4.32-3.478,4.32-2.228,0-3.478-1.63-3.478-4.347v-.218c0-2.716,1.3-4.292,3.478-4.292,2.2,0,3.478,1.63,3.478,4.347Zm-3.478-7.525a7.124,7.124,0,0,0-7.5,7.362v.217c0,4.428,3.232,7.254,7.471,7.254,4.266,0,7.5-2.853,7.5-7.335v-.218c0-4.428-3.205-7.281-7.471-7.281" transform="translate(-286.236 -145.4)" fill="#fff"/>
          <path id="Path_60" data-name="Path 60" d="M340.917,152.925c0,2.69-1.277,4.32-3.477,4.32-2.228,0-3.478-1.63-3.478-4.347v-.218c0-2.716,1.3-4.292,3.478-4.292,2.2,0,3.477,1.63,3.477,4.347ZM337.44,145.4a7.124,7.124,0,0,0-7.5,7.362v.217c0,4.428,3.233,7.254,7.471,7.254,4.265,0,7.5-2.853,7.5-7.335v-.218c0-4.428-3.206-7.281-7.471-7.281" transform="translate(-313.207 -145.4)" fill="#fff"/>
        </g>
      </g>
    </g>
    <g id="Group_18" data-name="Group 18" transform="translate(74.999 65.463)">
      <path id="Path_61" data-name="Path 61" d="M102.7,103.79h6.373a6,6,0,0,0,4.12-1.617l3.857-3.654c1.592-1.508,2.894-1,2.894,1.135V103.2a5.68,5.68,0,0,1-5.827,5.521H97.178a6,6,0,0,0-4.121,1.617l-4.5,4.263c-1.061,1-.7,1.828.8,1.828h27.071c6.437,0,11.654-4.943,11.654-11.041V79.745c0-1.422-.868-1.763-1.929-.757L101.9,101.962c-1.061,1-.7,1.828.8,1.828" transform="translate(-82.989 -73.452)" fill="#fff" opacity="0.6"/>
      <path id="Path_62" data-name="Path 62" d="M100.381,78.105H94.007a5.994,5.994,0,0,0-4.12,1.617L86.03,83.375c-1.592,1.508-2.895,1-2.895-1.136V78.692a5.68,5.68,0,0,1,5.828-5.521H105.9a6,6,0,0,0,4.121-1.617l4.5-4.263c1.061-1.006.7-1.828-.8-1.828H86.654C80.217,65.463,75,70.406,75,76.5V102.15c0,1.422.868,1.762,1.929.757L101.18,79.933c1.061-1.006.7-1.828-.8-1.828" transform="translate(-74.999 -65.463)" fill="#fff"/>
    </g>
  </g>
</svg>
