<svg xmlns="http://www.w3.org/2000/svg" width="10" height="11.13" viewBox="0 0 10 11.13">
  <g id="Group_220" data-name="Group 220" transform="translate(-104 -5.384)">
    <path id="ios_arrow_round_forward" data-name="ios arrow round forward" d="M3.712.889a.444.444,0,0,1,0-.711.444.444,0,0,1,.711,0L7.661,3.455a.491.491,0,0,1,.158.355.44.44,0,0,1-.039.2.619.619,0,0,1-.118.158L4.423,7.444a.444.444,0,0,1-.711,0q-.395-.395-.039-.711L6.082,4.324H.513A.454.454,0,0,1,0,3.811.454.454,0,0,1,.513,3.3H6.082Z" transform="translate(105.189 13.203) rotate(-90)" fill="#fff"/>
    <line id="Line_47" data-name="Line 47" x2="9" transform="translate(104.5 16.014)" fill="none" stroke="#fff" stroke-linecap="round" stroke-width="1"/>
  </g>
</svg>
