<svg xmlns="http://www.w3.org/2000/svg" width="297" height="75.75" viewBox="0 0 297 75.75">
  <g id="Group_5" data-name="Group 5" transform="translate(-856.52 -674.027)">
    <g id="Group_4" data-name="Group 4" transform="translate(914.967 726.632)">
      <path id="Path_20" data-name="Path 20" d="M1048.821,737.259l-.947,3.3h1.885Zm0,0-.947,3.3h1.885Zm46.924-9.364H916.37l6.5,10.752-6.5,12.393h179.375l-6.5-11.573Zm-143.34,16.093c-3,0-4.473-1.747-4.473-4.374v-.1a4.189,4.189,0,0,1,4.375-4.375c2.227,0,3.779,1.025,3.984,3.3h-2.529a1.34,1.34,0,0,0-1.445-1.357c-1.1,0-1.8.859-1.8,2.423v.1c0,1.543.654,2.421,1.836,2.421a1.476,1.476,0,0,0,1.592-1.406H956.4C956.233,742.835,954.622,743.988,952.405,743.988Zm15.391-.137h-6.123v-8.584H967.6v1.9h-3.477v1.475H966.9v1.757h-2.773v1.554H967.8Zm13.076,0h-2.383l-3.125-5.39v5.39h-2.158v-8.584h2.764l2.754,4.835v-4.835h2.148Zm12.188-6.688h-2.227v6.688h-2.471v-6.688h-2.217v-1.9h6.914Zm11.377,6.688h-6.113v-8.584h5.928v1.9h-3.486v1.475h2.773v1.757h-2.773v1.554h3.672Zm13.086,0h-2.373l-3.125-5.39v5.39h-2.168v-8.584h2.773l2.744,4.835v-4.835h2.148Zm13.525,0h-2.383l-3.125-5.39v5.39h-2.158v-8.584h2.773l2.744,4.835v-4.835h2.148Zm8.379,0h-2.48v-8.584h2.48Zm11.27,0-.459-1.6H1047.4l-.459,1.6h-2.285l2.744-8.584h3.174l2.725,8.584Zm13.486,0h-5.7v-8.584h2.471v6.671h3.232Zm-16.309-3.291h1.885l-.937-3.3Z" transform="translate(-916.37 -727.895)" fill="#fff"/>
    </g>
    <path id="Path_21" data-name="Path 21" d="M856.52,674.487h2.748v18.737h14.418V674.487h2.75V714.6h-2.75V695.468H859.268V714.6H856.52Z" transform="translate(0 -0.011)" fill="#fff"/>
    <path id="Path_22" data-name="Path 22" d="M886.967,702.077V686.986c0-7.966,4.545-12.959,11.725-12.959,7.069,0,11.669,4.993,11.669,12.9v15.035c0,8.022-4.6,13.071-11.669,13.071-7.18,0-11.725-4.993-11.725-12.96m20.646-.111V686.986c0-6.507-3.31-10.659-8.921-10.659-5.833,0-9.031,3.984-9.031,10.659v15.091c0,6.676,3.2,10.66,9.031,10.66,5.667,0,8.921-4.209,8.921-10.772" transform="translate(-0.714)" fill="#fff"/>
    <path id="Path_23" data-name="Path 23" d="M940.884,674.487v29.677c0,7.181-3.479,10.827-10.1,10.827-6.17,0-10.1-3.366-10.1-10.547V674.487h2.75v29.845c0,5.891,2.636,8.359,7.4,8.359,4.656,0,7.293-2.524,7.293-8.752V674.487Z" transform="translate(-1.504 -0.011)" fill="#fff"/>
    <path id="Path_24" data-name="Path 24" d="M949.987,704.378h2.637c.225,5.5,2.244,8.359,7.35,8.359,4.206,0,6.619-2.693,6.619-7.742,0-5.273-1.964-7.237-7.405-10.491-5.554-3.2-8.415-5.946-8.415-11.78,0-5.386,3.423-8.7,8.752-8.7,5.441,0,8.808,3.086,8.975,9.2h-2.581c-.168-4.824-2.468-6.9-6.395-6.9-3.871,0-6.115,2.3-6.115,6.283,0,4.6,1.851,6.452,7.125,9.594,6.059,3.534,8.7,6.059,8.7,12.734,0,6.508-3.534,10.1-9.256,10.1-6.452,0-9.818-3.872-9.986-10.659" transform="translate(-2.191)" fill="#fff"/>
    <path id="Path_25" data-name="Path 25" d="M983.8,676.675h-8.134v-2.188h19.074v2.188H986.55l-.056,37.923H983.8Z" transform="translate(-2.793 -0.011)" fill="#fff"/>
    <path id="Path_26" data-name="Path 26" d="M1001.29,702.077V686.986c0-7.966,4.544-12.959,11.724-12.959,7.068,0,11.668,4.993,11.668,12.9v15.035c0,8.022-4.6,13.071-11.668,13.071-7.181,0-11.724-4.993-11.724-12.96m20.644-.111V686.986c0-6.507-3.311-10.659-8.92-10.659-5.834,0-9.032,3.984-9.032,10.659v15.091c0,6.676,3.2,10.66,9.032,10.66,5.666,0,8.92-4.209,8.92-10.772" transform="translate(-3.393)" fill="#fff"/>
    <path id="Path_27" data-name="Path 27" d="M1035.3,674.487h3.533l12.511,30.742,1.627,4.208-.057-4.208V674.487h2.468V714.6h-3.028l-13.016-32.2-1.626-4.207.055,4.207v32.2H1035.3Z" transform="translate(-4.19 -0.011)" fill="#fff"/>
    <path id="Path_28" data-name="Path 28" d="M1076.718,714.094l16.1-37.419h-14.474v-2.187h18.007v.449l-16.1,37.418h15.709V714.6h-19.243Z" transform="translate(-5.161 -0.011)" fill="#fff"/>
    <path id="Path_29" data-name="Path 29" d="M1103.431,702.077V686.986c0-7.966,4.545-12.959,11.726-12.959,7.068,0,11.668,4.993,11.668,12.9v15.035c0,8.022-4.6,13.071-11.668,13.071-7.181,0-11.726-4.993-11.726-12.96m20.645-.111V686.986c0-6.507-3.311-10.659-8.919-10.659-5.834,0-9.033,3.984-9.033,10.659v15.091c0,6.676,3.2,10.66,9.033,10.66,5.666,0,8.919-4.209,8.919-10.772" transform="translate(-5.787)" fill="#fff"/>
    <path id="Path_30" data-name="Path 30" d="M1136.694,702.077V686.986c0-7.966,4.544-12.959,11.724-12.959,7.069,0,11.668,4.993,11.668,12.9v15.035c0,8.022-4.6,13.071-11.668,13.071-7.181,0-11.724-4.993-11.724-12.96m20.644-.111V686.986c0-6.507-3.311-10.659-8.92-10.659-5.834,0-9.032,3.984-9.032,10.659v15.091c0,6.676,3.2,10.66,9.032,10.66,5.666,0,8.92-4.209,8.92-10.772" transform="translate(-6.567)" fill="#fff"/>
    <path id="Path_31" data-name="Path 31" d="M880.079,738.468l-1.336.825v-1.68l1.61-1.13h1.739v7.023h-2.014Z" transform="translate(-0.521 -1.464)" fill="#fff"/>
    <path id="Path_32" data-name="Path 32" d="M884.622,741.52h1.846c.069.354.285.6.825.6.836,0,1.179-.629,1.208-1.826a1.675,1.675,0,0,1-1.592.824,2.167,2.167,0,0,1-2.376-2.27c0-1.473,1.1-2.475,2.888-2.475,2.092,0,3.074,1.405,3.074,3.437v.236c0,2.278-1.1,3.565-3.1,3.565-1.661,0-2.623-.746-2.77-2.093m3.731-2.682a.952.952,0,0,0-.962-1.05.939.939,0,0,0-.933,1.03.917.917,0,0,0,.933,1,.934.934,0,0,0,.962-.983" transform="translate(-0.657 -1.461)" fill="#fff"/>
    <path id="Path_33" data-name="Path 33" d="M892.4,743.219l2.456-2.6c.7-.747,1.158-1.346,1.158-1.935a.7.7,0,0,0-.745-.786c-.5,0-.815.3-.9,1.141h-1.827a2.54,2.54,0,0,1,2.829-2.652c1.719,0,2.632.923,2.632,2.22a3.408,3.408,0,0,1-1.326,2.445l-.981.952h2.357v1.5H892.4Z" transform="translate(-0.841 -1.461)" fill="#fff"/>
    <path id="Path_34" data-name="Path 34" d="M899.954,743.219l2.456-2.6c.7-.747,1.158-1.346,1.158-1.935a.7.7,0,0,0-.746-.786c-.5,0-.814.3-.9,1.141h-1.827a2.54,2.54,0,0,1,2.829-2.652c1.719,0,2.632.923,2.632,2.22a3.407,3.407,0,0,1-1.326,2.445l-.981.952H905.6v1.5h-5.648Z" transform="translate(-1.018 -1.461)" fill="#fff"/>
    <path id="Path_35" data-name="Path 35" d="M1108.235,743.219l2.456-2.6c.7-.747,1.159-1.346,1.159-1.935a.7.7,0,0,0-.746-.786c-.5,0-.816.3-.9,1.141h-1.827a2.54,2.54,0,0,1,2.828-2.652c1.72,0,2.633.923,2.633,2.22a3.406,3.406,0,0,1-1.325,2.445l-.984.952h2.357v1.5h-5.647Z" transform="translate(-5.9 -1.461)" fill="#fff"/>
    <path id="Path_36" data-name="Path 36" d="M1115.955,740.146v-.295a3.148,3.148,0,0,1,3.241-3.468,3.092,3.092,0,0,1,3.243,3.428v.275c0,2.229-1.278,3.537-3.282,3.537-1.965,0-3.2-1.268-3.2-3.478m4.47-.02v-.284c0-1.287-.374-1.936-1.229-1.936s-1.228.638-1.228,1.936v.295c0,1.306.384,1.925,1.248,1.925s1.208-.639,1.208-1.935" transform="translate(-6.081 -1.461)" fill="#fff"/>
    <path id="Path_37" data-name="Path 37" d="M1124.34,743.219l2.456-2.6c.7-.747,1.159-1.346,1.159-1.935a.7.7,0,0,0-.746-.786c-.5,0-.815.3-.9,1.141h-1.827a2.541,2.541,0,0,1,2.829-2.652c1.719,0,2.632.923,2.632,2.22a3.406,3.406,0,0,1-1.325,2.445l-.983.952h2.357v1.5h-5.648Z" transform="translate(-6.277 -1.461)" fill="#fff"/>
    <path id="Path_38" data-name="Path 38" d="M1131.9,743.219l2.457-2.6c.7-.747,1.159-1.346,1.159-1.935a.7.7,0,0,0-.747-.786c-.5,0-.814.3-.9,1.141h-1.827a2.54,2.54,0,0,1,2.828-2.652c1.72,0,2.633.923,2.633,2.22a3.406,3.406,0,0,1-1.325,2.445l-.983.952h2.358v1.5H1131.9Z" transform="translate(-6.454 -1.461)" fill="#fff"/>
  </g>
</svg>
