<svg xmlns="http://www.w3.org/2000/svg" width="380.482" height="32.733" viewBox="0 0 380.482 32.733">
  <g id="Group_5" data-name="Group 5" transform="translate(-856.52 -674.027)">
    <g id="Group_4" data-name="Group 4" transform="translate(1113.525 681.313)">
      <path id="Path_20" data-name="Path 20" d="M1020.241,735.369l-.756,2.635h1.5Zm0,0-.756,2.635h1.5Zm27.606-7.474H924.37l5.191,8.582-5.191,9.891h123.478l-5.191-9.237ZM943.285,740.74a3.213,3.213,0,0,1-3.57-3.491v-.079a3.344,3.344,0,0,1,3.492-3.492c1.777,0,3.017.818,3.18,2.635h-2.019a1.069,1.069,0,0,0-1.153-1.084c-.881,0-1.434.686-1.434,1.934v.078c0,1.232.522,1.932,1.465,1.932a1.178,1.178,0,0,0,1.271-1.122h1.957A2.859,2.859,0,0,1,943.285,740.74Zm12.284-.109h-4.887v-6.851h4.731v1.513h-2.775v1.177h2.214v1.4h-2.214v1.24h2.931Zm10.437,0h-1.9l-2.494-4.3v4.3h-1.723v-6.851h2.206l2.2,3.859v-3.859h1.715Zm9.728-5.338h-1.777v5.338h-1.972v-5.338h-1.769v-1.513h5.519Zm9.081,5.338h-4.88v-6.851h4.731v1.513h-2.783v1.177H984.1v1.4h-2.214v1.24h2.931Zm10.445,0h-1.894l-2.494-4.3v4.3h-1.73v-6.851h2.214l2.19,3.859v-3.859h1.715Zm10.8,0h-1.9l-2.494-4.3v4.3h-1.723v-6.851h2.214l2.19,3.859v-3.859h1.715Zm6.688,0h-1.98v-6.851h1.98Zm9,0-.367-1.278H1019.1l-.367,1.278h-1.824l2.19-6.851h2.533l2.175,6.851Zm10.764,0h-4.552v-6.851h1.972V739.1h2.58ZM1019.485,738h1.5l-.748-2.635Z" transform="translate(-924.37 -727.895)" fill="#fff"/>
    </g>
    <path id="Path_21" data-name="Path 21" d="M856.52,674.487h2.193v14.955h11.508V674.487h2.2V706.5h-2.2v-15.27H858.713V706.5H856.52Z" transform="translate(0 -0.101)" fill="#fff"/>
    <path id="Path_22" data-name="Path 22" d="M886.967,696.415V684.37c0-6.358,3.628-10.343,9.358-10.343,5.642,0,9.314,3.985,9.314,10.3v12c0,6.4-3.671,10.433-9.314,10.433-5.731,0-9.358-3.986-9.358-10.344m16.479-.089V684.37c0-5.194-2.642-8.508-7.12-8.508-4.656,0-7.209,3.18-7.209,8.508v12.045c0,5.328,2.553,8.509,7.209,8.509,4.523,0,7.12-3.359,7.12-8.6" transform="translate(-6.715)" fill="#fff"/>
    <path id="Path_23" data-name="Path 23" d="M936.808,674.487v23.687c0,5.731-2.776,8.642-8.06,8.642-4.925,0-8.06-2.687-8.06-8.418V674.487h2.195v23.821c0,4.7,2.1,6.672,5.91,6.672,3.716,0,5.821-2.015,5.821-6.986V674.487Z" transform="translate(-14.152 -0.102)" fill="#fff"/>
    <path id="Path_24" data-name="Path 24" d="M949.987,698.252h2.1c.179,4.388,1.791,6.672,5.866,6.672,3.357,0,5.283-2.15,5.283-6.18,0-4.209-1.568-5.777-5.911-8.374-4.433-2.553-6.717-4.746-6.717-9.4,0-4.3,2.732-6.941,6.986-6.941,4.343,0,7.03,2.463,7.164,7.343H962.7c-.134-3.851-1.97-5.508-5.1-5.508-3.09,0-4.881,1.836-4.881,5.015,0,3.672,1.477,5.15,5.687,7.657,4.836,2.821,6.94,4.836,6.94,10.164,0,5.194-2.821,8.06-7.388,8.06-5.15,0-7.837-3.09-7.971-8.508" transform="translate(-20.613)" fill="#fff"/>
    <path id="Path_25" data-name="Path 25" d="M982.159,676.234h-6.492v-1.746h15.224v1.746h-6.538l-.044,30.269h-2.15Z" transform="translate(-26.277 -0.101)" fill="#fff"/>
    <path id="Path_26" data-name="Path 26" d="M1001.29,696.415V684.37c0-6.358,3.627-10.343,9.358-10.343,5.642,0,9.313,3.985,9.313,10.3v12c0,6.4-3.672,10.433-9.313,10.433-5.731,0-9.358-3.986-9.358-10.344m16.478-.089V684.37c0-5.194-2.642-8.508-7.12-8.508-4.656,0-7.209,3.18-7.209,8.508v12.045c0,5.328,2.553,8.509,7.209,8.509,4.522,0,7.12-3.359,7.12-8.6" transform="translate(-31.927)" fill="#fff"/>
    <path id="Path_27" data-name="Path 27" d="M1035.3,674.487h2.82l9.986,24.537,1.3,3.359-.045-3.359V674.487h1.97V706.5h-2.417l-10.389-25.7-1.3-3.358.044,3.358v25.7H1035.3Z" transform="translate(-39.428 -0.101)" fill="#fff"/>
    <path id="Path_28" data-name="Path 28" d="M1076.718,706.1l12.852-29.867h-11.552v-1.746h14.372v.359l-12.851,29.866h12.538V706.5h-15.359Z" transform="translate(-48.562 -0.101)" fill="#fff"/>
    <path id="Path_29" data-name="Path 29" d="M1103.431,696.415V684.37c0-6.358,3.628-10.343,9.359-10.343,5.642,0,9.313,3.985,9.313,10.3v12c0,6.4-3.671,10.433-9.313,10.433-5.731,0-9.359-3.986-9.359-10.344m16.478-.089V684.37c0-5.194-2.642-8.508-7.119-8.508-4.656,0-7.21,3.18-7.21,8.508v12.045c0,5.328,2.553,8.509,7.21,8.509,4.523,0,7.119-3.359,7.119-8.6" transform="translate(-54.453)" fill="#fff"/>
    <path id="Path_30" data-name="Path 30" d="M1136.694,696.415V684.37c0-6.358,3.627-10.343,9.358-10.343,5.642,0,9.313,3.985,9.313,10.3v12c0,6.4-3.671,10.433-9.313,10.433-5.731,0-9.358-3.986-9.358-10.344m16.478-.089V684.37c0-5.194-2.642-8.508-7.12-8.508-4.656,0-7.209,3.18-7.209,8.508v12.045c0,5.328,2.553,8.509,7.209,8.509,4.523,0,7.12-3.359,7.12-8.6" transform="translate(-61.789)" fill="#fff"/>
  </g>
</svg>
