<svg xmlns="http://www.w3.org/2000/svg" width="190.797" height="29.366" viewBox="0 0 190.797 29.366">
  <g id="Group_44" data-name="Group 44" transform="translate(-64 -69.556)">
    <g id="Group_42" data-name="Group 42" transform="translate(107.785 75.554)">
      <g id="Group_39" data-name="Group 39" transform="translate(0 0.074)">
        <g id="Group_38" data-name="Group 38">
          <g id="Group_37" data-name="Group 37">
            <path id="Path_63" data-name="Path 63" d="M229.821,98.022h-6.838V91.065h-3.86V108.1h3.86v-7.029h6.838V108.1h3.86V91.065h-3.86Z" transform="translate(-219.123 -91.065)" fill="#fff"/>
          </g>
          <path id="Path_64" data-name="Path 64" d="M388.653,119.267c3.288,0,5.242-1.406,5.242-4.1,0-2.669-1.716-3.455-4.837-3.908-1.811-.262-2.406-.572-2.406-1.358,0-.762.643-1.287,1.763-1.287a1.686,1.686,0,0,1,1.954,1.5h3.169c-.31-2.859-2.383-3.86-5.146-3.86-2.549,0-4.932,1.287-4.932,3.884,0,2.43,1.287,3.383,4.6,3.883,1.787.262,2.526.62,2.526,1.477s-.62,1.358-1.954,1.358c-1.5,0-2.049-.643-2.192-1.763h-3.216c.119,2.692,2.073,4.17,5.432,4.17" transform="translate(-336.903 -101.97)" fill="#fff"/>
          <path id="Path_65" data-name="Path 65" d="M467.922,119.267a6.216,6.216,0,0,0,6.576-6.432v-.191a6.185,6.185,0,0,0-6.552-6.385,6.248,6.248,0,0,0-6.576,6.457v.191c0,3.884,2.835,6.361,6.552,6.361m.024-2.621c-1.954,0-3.05-1.429-3.05-3.812v-.191c0-2.383,1.144-3.765,3.05-3.765,1.93,0,3.05,1.43,3.05,3.812v.167c0,2.359-1.12,3.789-3.05,3.789" transform="translate(-392.993 -101.97)" fill="#fff"/>
          <path id="Path_66" data-name="Path 66" d="M432.319,113.124a6.274,6.274,0,0,0,2.1-.334v-2.669a3.215,3.215,0,0,1-1.31.239c-.881,0-1.382-.476-1.382-1.477v-6h2.621v-2.454h-2.621V97.733h-3.431v2.692h-2.1v2.454h2.1v6.314c0,2.6,1.406,3.931,4.026,3.931" transform="translate(-367.744 -95.851)" fill="#fff"/>
          <path id="Path_67" data-name="Path 67" d="M516,119h3.455v-7.2a2.467,2.467,0,0,1,2.6-2.74c1.525,0,2.192.81,2.192,2.5V119H527.7v-7.934c0-3.335-1.739-4.813-4.194-4.813a4.3,4.3,0,0,0-4.05,2.264v-1.978H516Z" transform="translate(-432.206 -101.97)" fill="#fff"/>
          <path id="Path_68" data-name="Path 68" d="M337.866,119.994a4.133,4.133,0,0,0,3.955-2.216v1.954h3.43V107.271h-3.43v7.315a2.479,2.479,0,0,1-2.6,2.74c-1.477,0-2.168-.81-2.168-2.5v-7.553h-3.431V115.3c0,3.264,1.811,4.693,4.241,4.693" transform="translate(-301.306 -102.697)" fill="#fff"/>
          <path id="Path_69" data-name="Path 69" d="M285.9,106.259a6.248,6.248,0,0,0-6.576,6.456v.191c0,3.884,2.835,6.361,6.552,6.361a6.216,6.216,0,0,0,6.576-6.433v-.191A6.185,6.185,0,0,0,285.9,106.259Zm3.05,6.6c0,2.359-1.12,3.789-3.05,3.789-1.954,0-3.05-1.43-3.05-3.812v-.191c0-2.383,1.144-3.765,3.05-3.765,1.93,0,3.05,1.429,3.05,3.812Z" transform="translate(-262.335 -101.97)" fill="#fff"/>
        </g>
      </g>
      <g id="Group_41" data-name="Group 41" transform="translate(102.76)">
        <path id="Path_70" data-name="Path 70" d="M584.083,90.8v3.321h8.757l-9.658,13.257v.477h15.085v-3.321h-9l9.283-13.282V90.8Z" transform="translate(-583.183 -90.804)" fill="#fff"/>
        <g id="Group_40" data-name="Group 40" transform="translate(16.419 4.349)">
          <path id="Path_71" data-name="Path 71" d="M650.987,112.817c0,2.361-1.121,3.792-3.053,3.792-1.956,0-3.053-1.431-3.053-3.816V112.6c0-2.385,1.145-3.768,3.053-3.768,1.932,0,3.053,1.431,3.053,3.816Zm-3.053-6.606a6.254,6.254,0,0,0-6.583,6.463v.191c0,3.888,2.838,6.368,6.559,6.368a6.222,6.222,0,0,0,6.583-6.44V112.6a6.191,6.191,0,0,0-6.559-6.392" transform="translate(-641.351 -106.211)" fill="#fff"/>
          <path id="Path_72" data-name="Path 72" d="M703.037,112.817c0,2.361-1.121,3.792-3.053,3.792-1.956,0-3.053-1.431-3.053-3.816V112.6c0-2.385,1.145-3.768,3.053-3.768,1.932,0,3.053,1.431,3.053,3.816Zm-3.053-6.606a6.254,6.254,0,0,0-6.582,6.463v.191c0,3.888,2.838,6.368,6.559,6.368a6.223,6.223,0,0,0,6.582-6.44V112.6a6.191,6.191,0,0,0-6.559-6.392" transform="translate(-678.71 -106.211)" fill="#fff"/>
        </g>
      </g>
    </g>
    <g id="Group_43" data-name="Group 43" transform="translate(64 69.556)">
      <path id="Path_73" data-name="Path 73" d="M85.022,98.44h4.151a3.794,3.794,0,0,0,2.683-1.112l2.512-2.511c1.037-1.037,1.885-.686,1.885.781v2.439a3.8,3.8,0,0,1-3.8,3.8H81.425a3.8,3.8,0,0,0-2.684,1.112l-2.93,2.931c-.691.691-.457,1.256.52,1.256h17.63a7.59,7.59,0,0,0,7.59-7.59V81.911c0-.977-.566-1.211-1.257-.52L84.5,97.184c-.691.691-.457,1.256.52,1.256" transform="translate(-72.192 -77.765)" fill="#fff" opacity="0.6"/>
      <path id="Path_74" data-name="Path 74" d="M80.53,78.247H76.379A3.794,3.794,0,0,0,73.7,79.358l-2.512,2.511c-1.037,1.037-1.885.686-1.885-.781V78.65a3.8,3.8,0,0,1,3.8-3.8H84.126a3.8,3.8,0,0,0,2.684-1.112l2.93-2.931c.691-.691.457-1.256-.52-1.256H71.59A7.59,7.59,0,0,0,64,77.146v17.63c0,.977.565,1.211,1.256.52L81.05,79.5c.691-.691.457-1.256-.52-1.256" transform="translate(-64 -69.556)" fill="#fff"/>
    </g>
  </g>
</svg>
